<svg xmlns="http://www.w3.org/2000/svg" version="1.1" xmlns:xlink="http://www.w3.org/1999/xlink" xmlns:svgjs="http://svgjs.com/svgjs" width="512" height="512" x="0" y="0" viewBox="0 0 128 128" style="enable-background:new 0 0 512 512" xml:space="preserve" class=""><g><path d="m105.73 7.75h-20.67v-3.75a4 4 0 0 0 -4-4h-34.12a4 4 0 0 0 -4 4v3.75h-20.67a6 6 0 0 0 -6 6v108.25a6 6 0 0 0 6 6h83.46a6 6 0 0 0 6-6v-108.25a6 6 0 0 0 -6-6zm-57.79-3.75h32.12a1 1 0 0 1 1 1v9.42a1 1 0 0 1 -1 1h-32.12a1 1 0 0 1 -1-1v-9.42a1 1 0 0 1 1-1zm59.79 118a2 2 0 0 1 -2 2h-83.46a2 2 0 0 1 -2-2v-108.25a2 2 0 0 1 2-2h20.67v3.67a4 4 0 0 0 4 4h34.12a4 4 0 0 0 4-4v-3.67h20.67a2 2 0 0 1 2 2z" fill="#000000" data-original="#000000" class=""></path><path d="m95.25 48.41-11.92-4.41-4.77-7.61a5.56 5.56 0 0 0 -4.7-2.59h-26.52c-5.08-.32-6.19 6.77-7.75 10.2h-4.7a5.55 5.55 0 0 0 -5.36 7l2.52 9.33a5.55 5.55 0 0 0 5.36 4.1 8.33 8.33 0 0 0 16.56 0h19.11c1.12 9.71 15.42 9.72 16.54 0 4.27.31 8.79-.27 9-5.55-.01-3.53.88-8.96-3.37-10.47zm-20.08-9.9 3.42 5.49h-24v-6.21h19.27a1.56 1.56 0 0 1 1.31.72zm-29.27.27c.44-1.59 3.59-.82 4.72-1v6.22h-6.73zm-.2 29c-5.67 0-5.63-8.63 0-8.65s5.67 8.62 0 8.67zm35.65 0c-5.66 0-5.63-8.62 0-8.65s5.65 8.62 0 8.67zm13.31-8.94c.06 2.41-4.2 1.32-5.57 1.55a8.32 8.32 0 0 0 -15.48 0h-20.17c-2.36-6.87-13.11-6.86-15.48 0a1.77 1.77 0 0 1 -2.05-1.14l-2.51-9.31a1.49 1.49 0 0 1 1.49-1.94h47.72l11.15 4.13a1.54 1.54 0 0 1 .9 1.41z" fill="#000000" data-original="#000000" class=""></path><path d="m40.82 106.32a2 2 0 0 1 -1.41-.58l-3.94-3.94a2 2 0 0 1 2.83-2.8l2.52 2.52 7.64-7.64a2 2 0 0 1 2.83 2.82l-9 9.06a2 2 0 0 1 -1.47.56z" fill="#000000" data-original="#000000" class=""></path><path d="m52.62 87.25a2 2 0 0 1 2 2v20.39a2 2 0 0 1 -2 2h-20.12a2 2 0 0 1 -2-2v-20.39a2 2 0 0 1 2-2zm0-4h-20.12a6 6 0 0 0 -6 6v20.39a6 6 0 0 0 6 6h20.12a6 6 0 0 0 6-6v-20.39a6 6 0 0 0 -6-6z" fill="#000000" data-original="#000000" class=""></path><path d="m99.73 95.2h-34a2 2 0 0 1 0-4h34a2 2 0 0 1 0 4z" fill="#000000" data-original="#000000" class=""></path><path d="m85.93 107.69h-20.16a2 2 0 0 1 0-4h20.16a2 2 0 0 1 0 4z" fill="#000000" data-original="#000000" class=""></path></g></svg>