<svg xmlns="http://www.w3.org/2000/svg" version="1.1" xmlns:xlink="http://www.w3.org/1999/xlink" xmlns:svgjs="http://svgjs.com/svgjs" width="512" height="512" x="0" y="0" viewBox="0 0 512 512" style="enable-background:new 0 0 512 512" xml:space="preserve"><g><g><path d="m431.663 471.697c-5.955-33.543-60.693-25.396-87.693-24.239-26.782-38.086-33.871-55.271-87.379-55.894-53.588 1.547-57.016 23.311-80.426 57.355-22.265.802-44.843 1.797-68.105 2.938-1.471-15.643-1.789-30.975-2.341-46.529-3.362-25.367 1.852-54.088 26.997-65.714 8.62-3.803 21.465-3.59 32.043-3.306 66.006.691 154.475-20.793 215.984 6.768 15.345 7.532 25.226 21.065 24.873 38.299-.16 11.373 17.919 10.835 17.134-.506-1.572-16.414-7.223-29.158-15.908-39 .013-1.451-.405-3.001-1.402-4.58-39.025-76.616-44.797-113.69-143.439-107.844-18.797.362-37.743.695-56.332-2.329-7.541-1.045-15.257-.929-22.755.576-46.075 9.704-60.516 61.327-72.897 101.173-36.532 27.842-27.143 82.285-26.725 125.407-.542 3.416-1.042 6.868-1.544 10.487-4.342 29.843-.92 47.794 33.569 47.176 14.056-.272 53.432 3.21 51.855-17.815-.698-5.599-1.631-11.194-3.014-16.673 62.579-.219 127.555.916 188.774-1.236.88 19.105-5.254 27.622 18.929 28.306 26.899 7.985 61.819 2.305 59.802-32.82zm-241.923-214.603c4.373-1.004 9.012-1.028 13.483-.791 37.386 3.904 74.842-9.384 111.826-3.201 34.439 4.985 48.321 38.984 62.819 69.134-59.445-24.15-162.063-2.844-212.267-6.091-8.493-.378-17.289-.727-25.895.371 13.467-25.609 29.226-57.765 50.034-59.422zm-50.735 223.887c-12.652 2.849-25.261 10.435-38.45 8.566-1.144-3.82-1.66-7.848-1.798-11.962 9.182 1.178 20.298-.464 27.053.206 4.628-.073 9.278-.134 13.946-.183-.27 1.116-.521 2.239-.751 3.373zm61.011-32.845c2.51-5.419 5.024-10.711 8.323-16.007 14.357-28.063 80.031-24.936 94.242 1.657 2.719 4.444 4.901 8.81 7.071 13.226-37.065-.419-73.085.049-109.636 1.124zm205.96 27.44c.038.084.064.208.085.347-.163-.166-.28-.809-.085-.347zm-.143 3.011c-6.386 10.653-22.549 4.529-33.744 4.747-.451-3.005-.916-5.994-1.134-8.89 11.959-.948 23.795-1.003 35.139 2.414.009.632-.211 1.307-.261 1.729z" fill="#000000" data-original="#000000"></path><path d="m337.766 370.345c-21.008 7.73-18.992 39.098.661 47.022 44.829 14.817 43.452-61.032-.661-47.022z" fill="#000000" data-original="#000000"></path><path d="m154.11 371.423c-20.12 7.353-22.749 37.216-4.056 47.864 46.919 21.091 54.572-63.076 4.056-47.864z" fill="#000000" data-original="#000000"></path><path d="m236.964 193.025c38.781 32.619 72.103-41.166 18.99-43.845-22.53-.051-33.872 27.41-18.99 43.845z" fill="#000000" data-original="#000000"></path><path d="m152.681 64.349c56.115-54.349 145.507-46.418 204.535-1.042 7.498 5.146 16.985-3.103 12.819-11.288-47.832-81.155-170.471-56.416-228.946-.209-8.111 7.388 3.535 20.114 11.592 12.539z" fill="#000000" data-original="#000000"></path><path d="m300.422 122.806c14.044 17.454 38.852-5.903 22.115-20.951-18.923-16.106-42.907-24.323-67.398-23.564-15.961-2.546-89.206 25.902-62.75 46.146 18.836 8.887 15.227-28.5 62.533-24.95 17.326 1.069 35.15 9.494 45.5 23.319z" fill="#000000" data-original="#000000"></path></g></g></svg>