<svg xmlns="http://www.w3.org/2000/svg" version="1.1" xmlns:xlink="http://www.w3.org/1999/xlink" xmlns:svgjs="http://svgjs.com/svgjs" width="512" height="512" x="0" y="0" viewBox="0 0 64 64" style="enable-background:new 0 0 512 512" xml:space="preserve" class=""><g><path d="M45.12 32a10.757 10.757 0 0 0-10.74 10.75c0 5.7 9.59 16.46 10 16.92a1.006 1.006 0 0 0 1.49 0c.41-.46 10.01-11.22 10.01-16.92A10.768 10.768 0 0 0 45.12 32zm-5.87 9.94a5.875 5.875 0 1 1 5.87 5.87 5.887 5.887 0 0 1-5.87-5.87z" fill="#000000" data-original="#000000" class=""></path><path d="M49 41.94a3.875 3.875 0 1 1-3.88-3.88A3.882 3.882 0 0 1 49 41.94zM41.125 60h-18c-3.86 0-7-2.756-7-6.143s3.14-6.143 7-6.143c2.757 0 5-1.858 5-4.143v-3.428c0-2.285-2.243-4.143-5-4.143h-14a1 1 0 0 1 0-2h14c3.86 0 7 2.756 7 6.143v3.428c0 3.387-3.14 6.143-7 6.143-2.757 0-5 1.859-5 4.143 0 2.285 2.243 4.143 5 4.143h18a1 1 0 0 1 0 2zM29.58 17.29a1 1 0 0 1-.7 1.71h-18.5v12a1 1 0 0 1-2 0V5a.997.997 0 0 1 1-1h19.5a1 1 0 0 1 .7 1.71l-5.79 5.79z" fill="#000000" data-original="#000000" class=""></path></g></svg>