<svg xmlns="http://www.w3.org/2000/svg" version="1.1" xmlns:xlink="http://www.w3.org/1999/xlink" xmlns:svgjs="http://svgjs.com/svgjs" width="512" height="512" x="0" y="0" viewBox="0 0 60 60" style="enable-background:new 0 0 512 512" xml:space="preserve"><g><g id="Page-1" fill="none" fill-rule="evenodd"><g id="025---Car-License" fill="rgb(0,0,0)" fill-rule="nonzero"><path id="Shape" d="m10 39h-4c-1.1045695 0-2 .8954305-2 2v2c0 1.1045695.8954305 2 2 2h4c1.1045695 0 2-.8954305 2-2v-2c0-1.1045695-.8954305-2-2-2zm-4 4v-2h4v2z" fill="#000000" data-original="#000000"></path><path id="Shape" d="m31 39h-14c-1.1045695 0-2 .8954305-2 2v2c0 1.1045695.8954305 2 2 2h14c1.1045695 0 2-.8954305 2-2v-2c0-1.1045695-.8954305-2-2-2zm-6 2h2v2h-2zm-2 2h-2v-2h2zm-6-2h2v2h-2zm12 2v-2h2v2z" fill="#000000" data-original="#000000"></path><path id="Shape" d="m36 41v2c0 1.1045695.8954305 2 2 2h4c1.1045695 0 2-.8954305 2-2v-2c0-1.1045695-.8954305-2-2-2h-4c-1.1045695 0-2 .8954305-2 2zm6 2h-4v-2h4z" fill="#000000" data-original="#000000"></path><path id="Shape" d="m55 0h-32c-2.7600532.00330612-4.9966939 2.23994685-5 5v16h-3.253c-2.0649669.0077957-3.915478 1.276627-4.667 3.2l-2.229 5.8h-2.851c-1.65344336.0082058-2.99179417 1.3465566-3 3 .00365767 1.1077812.61929694 2.1228164 1.6 2.638l-1.725 1.38c-1.18847434.9466494-1.87908475 2.3845923-1.875 3.904v9.078c.00681482 1.8184116 1.23931486 3.4034067 3 3.858v3.142c0 1.6568542 1.34314575 3 3 3h4c1.6568542 0 3-1.3431458 3-3v-3h22v3c0 1.6568542 1.3431458 3 3 3h4c1.6568542 0 3-1.3431458 3-3v-3.142c1.7606851-.4545933 2.9931852-2.0395884 3-3.858v-9.078c.0020305-1.518041-.6887245-2.9540457-1.876-3.9l-1.724-1.384c.9807031-.5151836 1.5963423-1.5302188 1.6-2.638-.0082058-1.6534434-1.3465566-2.9917942-3-3h-2.852l-.769-2h15.621c2.7600532-.0033061 4.9966939-2.2399468 5-5v-18c-.0033061-2.76005315-2.2399468-4.99669388-5-5zm-43.053 24.923c.4500168-1.1550627 1.5603806-1.9176447 2.8-1.923h18.506c1.2396194.0053553 2.3499832.7679373 2.8 1.923l3.491 9.077h-31.088zm-7.641 7.365c.18239634-.1865985.43307757-.2906276.694-.288h2.082l-.769 2h-1.313c-.55228475 0-1-.4477153-1-1-.00087326-.2694422.10990828-.5272084.306-.712zm-2.306 17.712v-1h14v3h-12c-1.1045695 0-2-.8954305-2-2zm9 7c0 .5522847-.4477153 1-1 1h-4c-.55228475 0-1-.4477153-1-1v-3h6zm7-5v-3h12v3zm25 5c0 .5522847-.4477153 1-1 1h-4c-.5522847 0-1-.4477153-1-1v-3h6zm3-7c0 1.1045695-.8954305 2-2 2h-12v-3h14zm0-9.078.0000139 6.078h-44.00002006l.00000616-6.078c-.0018499-.9116202.41284023-1.7741462 1.126-2.342l2.951-2.361c.17687631-.1414407.39652577-.2186529.623-.219h34.6c.2271603-.0001065.4475878.0771313.625.219l2.951 2.361c.7127656.5679699 1.1267779 1.4306181 1.124 2.342zm-3-8.922c.2694422-.0008733.5272084.1099083.712.306.1865985.1823963.2906276.4330776.288.694 0 .5522847-.4477153 1-1 1h-1.313l-.769-2.0000051zm15-9c0 1.6568542-1.3431458 3-3 3h-16.39l-.691-1.8c-.7509304-1.9233979-2.6012246-3.1923524-4.666-3.2h-13.253v-16c0-1.65685425 1.3431458-3 3-3h32c1.6568542 0 3 1.34314575 3 3z" fill="#000000" data-original="#000000"></path><path id="Shape" d="m51.287 19.979h-1.264c-.429844-.3963148-.5831057-1.0101472-.39-1.562 1.3394716-.5972131 2.4296886-1.6414741 3.084-2.954 1.2632598-.145444 2.2243035-1.2026348 2.249-2.474-.0085867-.920284-.5248905-1.7605281-1.342-2.184.455-1.86.4-4.422-1.849-5.68-1.373-.767-3.358-.688-5.459-.6-2.231.089-4.764.191-5.4-1-.2072596-.38700168-.6426894-.59357131-1.0735291-.50928655-.4308398.08428475-.7563267.43971175-.8024709.87628655-.021.192-.39 3.926 1.6 5.974v.814c-.9586916.3660851-1.5962954 1.2808563-1.608 2.307.0247608 1.2717039.9863448 2.329019 2.25 2.474.6529887 1.313383 1.7431238 2.358258 3.083 2.955.1926651.5515603.039437 1.1648656-.39 1.561h-1.262c-.5522847 0-1 .4477153-1 1s.4477153 1 1 1h.761c.5260344 1.4963618 1.9393693 2.4976378 3.5255 2.4976378s2.9994656-1.001276 3.5255-2.4976378h.762c1.31675-.0477396 2.4721637.8704813 2.723 2.164.0789767.5467619.5862381.9259767 1.133.847s.9259767-.5862381.847-1.133c-.3975334-2.2748724-2.39408-3.9203359-4.703-3.876zm-8.4-5.856c-.1770212-.4083966-.5840159-.6686517-1.029-.658-.0715805-.0002655-.1429849.0071096-.213.022-.199971.0359147-.4021087-.0507725-.5139322-.2204008-.1118234-.1696284-.1118234-.38957 0-.5591984.1118235-.1696283.3139612-.2563155.5139322-.2204008.5522847 0 1-.4477153 1-1v-.5c.5059965.0352696.958255-.3138746 1.052224-.8123184.0939689-.4984439-.2001188-.98829272-.684224-1.1396816-1.266-.394-1.748-1.746-1.92-2.936 1.72695.46997355 3.5266894.61209394 5.306.419 1.73-.071 3.523-.142 4.4.349 1.874 1.048.643 4.218.632 4.248-.12383.3080248-.0867213.6574232.0990455.9325665s.495971.4401576.8279545.4404335c.3050389-.0268047.5753938.1955266.608.5 0 .274-.282.514-.7.489-.4894961-.1002071-.978358.1740325-1.148.644-.6400957 1.7193013-2.2814103 2.8596136-4.116 2.8596136s-3.4759043-1.1403123-4.116-2.8596136zm4.113 8.353c-.7137844.0212884-1.3611051-.4165695-1.607-1.087.6708699-.6358337 1.046008-1.5227545 1.035-2.447.19.017.379.04.572.04s.382-.023.572-.04c-.0113747.9243175.3638231 1.8113793 1.035 2.447-.2461515.6702297-.8933065 1.1079755-1.607 1.087z" fill="#000000" data-original="#000000"></path><path id="Shape" d="m24 6h-1c-.5522847 0-1 .44771525-1 1s.4477153 1 1 1h1c.5522847 0 1-.44771525 1-1s-.4477153-1-1-1z" fill="#000000" data-original="#000000"></path><path id="Shape" d="m36 6h-8c-.5522847 0-1 .44771525-1 1s.4477153 1 1 1h8c.5522847 0 1-.44771525 1-1s-.4477153-1-1-1z" fill="#000000" data-original="#000000"></path><path id="Shape" d="m24 10h-1c-.5522847 0-1 .4477153-1 1s.4477153 1 1 1h1c.5522847 0 1-.4477153 1-1s-.4477153-1-1-1z" fill="#000000" data-original="#000000"></path><path id="Shape" d="m36 10h-8c-.5522847 0-1 .4477153-1 1s.4477153 1 1 1h8c.5522847 0 1-.4477153 1-1s-.4477153-1-1-1z" fill="#000000" data-original="#000000"></path><path id="Shape" d="m24 14h-1c-.5522847 0-1 .4477153-1 1s.4477153 1 1 1h1c.5522847 0 1-.4477153 1-1s-.4477153-1-1-1z" fill="#000000" data-original="#000000"></path><path id="Shape" d="m36 14h-8c-.5522847 0-1 .4477153-1 1s.4477153 1 1 1h8c.5522847 0 1-.4477153 1-1s-.4477153-1-1-1z" fill="#000000" data-original="#000000"></path></g></g></g></svg>