<svg xmlns="http://www.w3.org/2000/svg" version="1.1" xmlns:xlink="http://www.w3.org/1999/xlink" xmlns:svgjs="http://svgjs.com/svgjs" width="512" height="512" x="0" y="0" viewBox="0 0 32 32" style="enable-background:new 0 0 512 512" xml:space="preserve" class=""><g><g id="Layer_15" data-name="Layer 15"><path d="m26.18 27.18a1 1 0 0 0 1-1v-3.11a3.81 3.81 0 0 0 0-7.36v-9.89a1 1 0 0 0 -2 0v9.9a3.81 3.81 0 0 0 0 7.36v3.11a1 1 0 0 0 1 .99zm-1.83-7.79a1.83 1.83 0 1 1 1.83 1.83 1.83 1.83 0 0 1 -1.83-1.83z" fill="#000000" data-original="#000000" class=""></path><path d="m16 27.18a1 1 0 0 0 1-1v-13.86a3.83 3.83 0 1 0 -2 0v13.86a1 1 0 0 0 1 1zm-1.83-18.53a1.83 1.83 0 1 1 1.83 1.82 1.83 1.83 0 0 1 -1.83-1.82z" fill="#000000" data-original="#000000" class=""></path><path d="m4.82 19.68v6.5a1 1 0 0 0 2 0v-6.5a3.81 3.81 0 0 0 0-7.36v-6.5a1 1 0 0 0 -2 0v6.5a3.81 3.81 0 0 0 0 7.36zm1-5.51a1.83 1.83 0 1 1 -1.82 1.83 1.83 1.83 0 0 1 1.82-1.83z" fill="#000000" data-original="#000000" class=""></path></g></g></svg>