<?xml version="1.0" encoding="iso-8859-1"?>
<!-- Uploaded to: SVG Repo, www.svgrepo.com, Generator: SVG Repo Mixer Tools -->
<svg fill="#000000" height="800px" width="800px" version="1.1" id="Layer_1" xmlns="http://www.w3.org/2000/svg" xmlns:xlink="http://www.w3.org/1999/xlink" 
	 viewBox="0 0 512 512" xml:space="preserve">
<g>
	<g>
		<path d="M490.667,128V64c0-11.782-9.551-21.333-21.333-21.333H384c-11.782,0-21.333,9.551-21.333,21.333v64
			c-11.782,0-21.333,9.551-21.333,21.333v85.333c0,11.782,9.551,21.333,21.333,21.333h42.667v74.667
			c0,9.273-0.931,18.34-2.693,27.118C390.541,299.673,339.032,256,277.333,256c-70.683,0-128,57.317-128,128
			c0,8.081,0.757,15.983,2.19,23.649C136.685,385.583,128,359.083,128,330.667V213.333h64c11.782,0,21.333-9.551,21.333-21.333
			v-85.333c0-11.782-9.551-21.333-21.333-21.333v-64C192,9.551,182.449,0,170.667,0h-128C30.885,0,21.333,9.551,21.333,21.333v64
			C9.551,85.333,0,94.885,0,106.667V192c0,11.782,9.551,21.333,21.333,21.333h64v117.333C85.333,430.449,166.885,512,266.667,512
			c1.933,0,3.857-0.041,5.776-0.102c1.623,0.061,3.252,0.102,4.89,0.102c19.558,0,38.089-4.395,54.669-12.241
			C399.717,473.413,448,407.44,448,330.667V256h42.667c11.782,0,21.333-9.551,21.333-21.333v-85.333
			C512,137.551,502.449,128,490.667,128z M64,42.667h85.333v42.667H64V42.667z M42.667,128h128v42.667h-128V128z M277.333,298.667
			c47.119,0,85.333,38.214,85.333,85.333c0,33.598-19.437,62.656-47.67,76.573c-13.303,4.993-27.556,7.989-42.391,8.623
			C227.685,466.741,192,429.532,192,384C192,336.881,230.214,298.667,277.333,298.667z M405.333,85.333H448V128h-42.667V85.333z
			 M469.333,213.333H384v-42.667h85.333V213.333z"/>
	</g>
</g>
</svg>