<svg xmlns="http://www.w3.org/2000/svg" version="1.1" xmlns:xlink="http://www.w3.org/1999/xlink" xmlns:svgjs="http://svgjs.com/svgjs" width="512" height="512" x="0" y="0" viewBox="0 0 512 512" style="enable-background:new 0 0 512 512" xml:space="preserve" class=""><g><path d="M126 211c-46.869 0-85-38.131-85-85s38.131-85 85-85 85 38.131 85 85-38.131 85-85 85zM386 211c-46.869 0-85-38.131-85-85s38.131-85 85-85 85 38.131 85 85-38.131 85-85 85zM407 283.5c0-19.453 7.716-37.127 20.23-50.162A114.356 114.356 0 0 1 386 241c-34.78 0-66.002-15.522-87.107-40h-84.685C248.715 227.53 271 269.208 271 316v155h145.001v-80c0-8.284 6.716-15 15-15s15 6.716 15 15v80H486c8.284 0 15-6.716 15-15V356h-21.5c-39.977 0-72.5-32.523-72.5-72.5zM501 355.835v-.022c-.085.007-.079.014 0 .022z" fill="#000000" data-original="#000000" class=""></path><path d="M497 326h-17.5c-23.435 0-42.5-19.065-42.5-42.5s19.065-42.5 42.5-42.5c17.92 0 32.5 14.58 32.5 32.5V311c0 8.284-6.716 15-15 15zM190.731 221.001C172.28 233.613 149.987 241 126 241a114.36 114.36 0 0 1-41.227-7.659C97.285 246.375 105 264.048 105 283.5c0 39.977-32.523 72.5-72.5 72.5H11v100c0 8.284 6.716 15 15 15h40.001v-80c0-8.284 6.716-15 15-15s15 6.716 15 15v80H241V316c0-39.423-19.945-74.271-50.269-94.999z" fill="#000000" data-original="#000000" class=""></path><path d="M11 355.813v.032c.115-.011.124-.022 0-.032zM0 311v-37.5C0 255.58 14.58 241 32.5 241c23.435 0 42.5 19.065 42.5 42.5S55.935 326 32.5 326H15c-8.284 0-15-6.716-15-15z" fill="#000000" data-original="#000000" class=""></path></g></svg>