<svg xmlns="http://www.w3.org/2000/svg" version="1.1" xmlns:xlink="http://www.w3.org/1999/xlink" xmlns:svgjs="http://svgjs.com/svgjs" width="512" height="512" x="0" y="0" viewBox="0 0 64 64" style="enable-background:new 0 0 512 512" xml:space="preserve"><g><path d="m59 23.132v29.868a6.006 6.006 0 0 1 -6 6h-10a4 4 0 0 1 -4-4v-11a2 2 0 0 0 -2-2h-10a2 2 0 0 0 -2 2v11a4 4 0 0 1 -4 4h-10a6.006 6.006 0 0 1 -6-6v-29.868a4.019 4.019 0 0 1 1.942-3.432l23-13.8a4 4 0 0 1 4.117 0l23 13.8a4.019 4.019 0 0 1 1.941 3.432z" fill="#000000" data-original="#000000"></path></g></svg>