<svg xmlns="http://www.w3.org/2000/svg" version="1.1" xmlns:xlink="http://www.w3.org/1999/xlink" xmlns:svgjs="http://svgjs.com/svgjs" width="512" height="512" x="0" y="0" viewBox="0 0 512 512" style="enable-background:new 0 0 512 512" xml:space="preserve" class=""><g><path d="m458.281 110.812h-162.384v-14.445c0-22.023-17.871-39.941-39.941-39.941-21.967 0-39.838 17.917-39.838 39.941v14.444h-162.378c-20.711 0-37.556 16.845-37.556 37.551v269.659c0 20.702 16.845 37.551 37.556 37.551h404.541c20.701 0 37.541-16.849 37.541-37.551v-269.659c0-20.706-16.84-37.55-37.541-37.55zm-234.499-14.445c0-17.801 14.431-32.283 32.283-32.283 17.739 0 32.175 14.482 32.175 32.283v57.521h-64.458zm234.499 351.542h-404.541c-16.483 0-29.897-13.408-29.897-29.888v-269.659c0-16.479 13.414-29.888 29.897-29.888h162.378v35.414h-17.491c-2.114 0-3.829 1.715-3.829 3.829 0 2.118 1.715 3.829 3.829 3.829h114.761c2.118 0 3.834-1.711 3.834-3.829 0-2.114-1.716-3.829-3.834-3.829h-17.491v-35.414h162.384c16.479 0 29.883 13.409 29.883 29.888v203.313c-1.865.258-3.305 1.855-3.305 3.796 0 1.936 1.439 3.539 3.305 3.792v58.758c0 16.48-13.404 29.888-29.883 29.888z" fill="#000000" data-original="#000000"></path><path d="m256.064 111.402c8.53 0 15.471-6.988 15.471-15.574 0-8.535-6.94-15.476-15.471-15.476-8.591 0-15.579 6.941-15.579 15.476 0 8.586 6.989 15.574 15.579 15.574zm0-23.387c4.308 0 7.809 3.506 7.809 7.813 0 4.363-3.501 7.911-7.809 7.911-4.443 0-7.921-3.478-7.921-7.911.001-4.307 3.553-7.813 7.921-7.813z" fill="#000000" data-original="#000000"></path><path d="m181.765 193.918h-131.61c-2.119 0-3.834 1.715-3.834 3.829v131.619c0 2.114 1.715 3.829 3.834 3.829h131.61c2.119 0 3.834-1.715 3.834-3.829v-131.619c0-2.114-1.716-3.829-3.834-3.829zm-3.829 131.614h-123.952v-123.956h123.952z" fill="#000000" data-original="#000000"></path><path d="m70.814 320.358h90.395c2.118 0 3.833-1.716 3.833-3.829v-33.285c0-1.575-.965-2.99-2.432-3.567l-26.87-10.555c-1.218-.473-2.596-.3-3.656.474l-16.118 11.735-16.02-11.73c-1.059-.778-2.442-.956-3.661-.479l-26.869 10.555c-1.467.577-2.433 1.992-2.433 3.567v33.285c.002 2.114 1.717 3.829 3.831 3.829zm3.834-34.504 22.473-8.83 16.577 12.139c1.345.984 3.168.984 4.514.005l16.685-12.144 22.483 8.83v26.846h-7.564v-17.168c0-2.113-1.715-3.829-3.834-3.829-2.114 0-3.829 1.716-3.829 3.829v16.624h-52.278v-16.624c0-2.113-1.715-3.829-3.834-3.829-2.114 0-3.829 1.716-3.829 3.829v17.168h-7.564z" fill="#000000" data-original="#000000"></path><path d="m116.393 269.343c17.468 0 26.237-23.308 26.237-36.351 0-14.468-11.769-26.241-26.237-26.241s-26.241 11.773-26.241 26.241c0 13.043 8.769 36.351 26.241 36.351zm0-54.929c10.241 0 18.574 8.333 18.574 18.578 0 10.114-7.053 28.688-18.574 28.688-11.525 0-18.583-18.574-18.583-28.688 0-10.245 8.338-18.578 18.583-18.578z" fill="#000000" data-original="#000000"></path><path d="m169.148 342.719h-106.269c-2.119 0-3.834 1.716-3.834 3.834 0 2.114 1.715 3.829 3.834 3.829h106.269c2.118 0 3.829-1.715 3.829-3.829 0-2.118-1.711-3.834-3.829-3.834z" fill="#000000" data-original="#000000"></path><path d="m169.148 362.413h-106.269c-2.119 0-3.834 1.716-3.834 3.829s1.715 3.834 3.834 3.834h106.269c2.118 0 3.829-1.721 3.829-3.834s-1.711-3.829-3.829-3.829z" fill="#000000" data-original="#000000"></path><path d="m169.148 382.098h-106.269c-2.119 0-3.834 1.715-3.834 3.834 0 2.113 1.715 3.829 3.834 3.829h106.269c2.118 0 3.829-1.716 3.829-3.829 0-2.119-1.711-3.834-3.829-3.834z" fill="#000000" data-original="#000000"></path><path d="m281.19 201.576h99.853c2.113 0 3.829-1.715 3.829-3.829s-1.716-3.829-3.829-3.829h-99.853c-2.114 0-3.829 1.715-3.829 3.829s1.715 3.829 3.829 3.829z" fill="#000000" data-original="#000000"></path><path d="m281.19 216.804h127.701c2.113 0 3.829-1.711 3.829-3.829 0-2.114-1.716-3.829-3.829-3.829h-127.701c-2.114 0-3.829 1.715-3.829 3.829 0 2.118 1.715 3.829 3.829 3.829z" fill="#000000" data-original="#000000"></path><path d="m434.233 216.804h31.326c2.114 0 3.829-1.711 3.829-3.829 0-2.114-1.715-3.829-3.829-3.829h-31.326c-2.119 0-3.834 1.715-3.834 3.829 0 2.118 1.715 3.829 3.834 3.829z" fill="#000000" data-original="#000000"></path><path d="m281.19 240.842h99.853c2.113 0 3.829-1.715 3.829-3.829 0-2.119-1.716-3.829-3.829-3.829h-99.853c-2.114 0-3.829 1.71-3.829 3.829 0 2.114 1.715 3.829 3.829 3.829z" fill="#000000" data-original="#000000"></path><path d="m281.19 256.074h127.701c2.113 0 3.829-1.715 3.829-3.833 0-2.114-1.716-3.829-3.829-3.829h-127.701c-2.114 0-3.829 1.715-3.829 3.829 0 2.118 1.715 3.833 3.829 3.833z" fill="#000000" data-original="#000000"></path><path d="m469.389 252.241c0-2.114-1.715-3.829-3.829-3.829h-31.326c-2.119 0-3.834 1.715-3.834 3.829 0 2.118 1.715 3.833 3.834 3.833h31.326c2.114 0 3.829-1.715 3.829-3.833z" fill="#000000" data-original="#000000"></path><path d="m412.721 291.511c0-2.113-1.716-3.829-3.829-3.829h-127.702c-2.114 0-3.829 1.716-3.829 3.829 0 2.119 1.715 3.834 3.829 3.834h127.701c2.114 0 3.83-1.715 3.83-3.834z" fill="#000000" data-original="#000000"></path><path d="m444.567 391.889h-145.215c-2.118 0-3.834 1.715-3.834 3.829v28.177c0 2.113 1.716 3.829 3.834 3.829h145.216c2.114 0 3.829-1.716 3.829-3.829v-28.177c-.001-2.114-1.715-3.829-3.83-3.829zm-3.829 28.176h-137.557v-20.519h137.558v20.519z" fill="#000000" data-original="#000000"></path><path d="m267.604 351.638h-5.47c-2.113 0-3.829 1.716-3.829 3.834 0 2.114 1.716 3.829 3.829 3.829h5.47c2.118 0 3.834-1.715 3.834-3.829 0-2.118-1.716-3.834-3.834-3.834z" fill="#000000" data-original="#000000"></path><path d="m312.479 351.638c-2.118 0-3.829 1.716-3.829 3.834 0 2.114 1.711 3.829 3.829 3.829h5.47c2.118 0 3.834-1.715 3.834-3.829 0-2.118-1.716-3.834-3.834-3.834z" fill="#000000" data-original="#000000"></path><path d="m292.776 351.638h-5.47c-2.118 0-3.834 1.716-3.834 3.834 0 2.114 1.716 3.829 3.834 3.829h5.47c2.118 0 3.834-1.715 3.834-3.829 0-2.118-1.715-3.834-3.834-3.834z" fill="#000000" data-original="#000000"></path><path d="m409.342 355.472c0 2.114 1.71 3.829 3.829 3.829h5.469c2.119 0 3.834-1.715 3.834-3.829 0-2.118-1.715-3.834-3.834-3.834h-5.469c-2.119 0-3.829 1.716-3.829 3.834z" fill="#000000" data-original="#000000"></path><path d="m468.985 351.638h-5.469c-2.114 0-3.829 1.716-3.829 3.834 0 2.114 1.715 3.829 3.829 3.829h5.469c2.119 0 3.834-1.715 3.834-3.829 0-2.118-1.715-3.834-3.834-3.834z" fill="#000000" data-original="#000000"></path><path d="m337.652 351.638c-2.118 0-3.829 1.716-3.829 3.834 0 2.114 1.711 3.829 3.829 3.829h5.47c2.118 0 3.833-1.715 3.833-3.829 0-2.118-1.715-3.834-3.833-3.834z" fill="#000000" data-original="#000000"></path><path d="m443.817 359.301c2.114 0 3.829-1.715 3.829-3.829 0-2.118-1.715-3.834-3.829-3.834h-5.474c-2.114 0-3.829 1.716-3.829 3.834 0 2.114 1.715 3.829 3.829 3.829z" fill="#000000" data-original="#000000"></path><path d="m217.263 351.638h-5.475c-2.114 0-3.829 1.716-3.829 3.834 0 2.114 1.715 3.829 3.829 3.829h5.475c2.113 0 3.829-1.715 3.829-3.829 0-2.118-1.716-3.834-3.829-3.834z" fill="#000000" data-original="#000000"></path><path d="m242.435 351.638h-5.474c-2.114 0-3.829 1.716-3.829 3.834 0 2.114 1.715 3.829 3.829 3.829h5.474c2.114 0 3.829-1.715 3.829-3.829 0-2.118-1.715-3.834-3.829-3.834z" fill="#000000" data-original="#000000"></path><path d="m387.998 351.638c-2.119 0-3.829 1.716-3.829 3.834 0 2.114 1.71 3.829 3.829 3.829h5.474c2.114 0 3.829-1.715 3.829-3.829 0-2.118-1.715-3.834-3.829-3.834z" fill="#000000" data-original="#000000"></path><path d="m362.825 351.638c-2.118 0-3.829 1.716-3.829 3.834 0 2.114 1.711 3.829 3.829 3.829h5.47c2.118 0 3.833-1.715 3.833-3.829 0-2.118-1.715-3.834-3.833-3.834z" fill="#000000" data-original="#000000"></path></g></svg>