<svg xmlns="http://www.w3.org/2000/svg" version="1.1" xmlns:xlink="http://www.w3.org/1999/xlink" xmlns:svgjs="http://svgjs.com/svgjs" width="512" height="512" x="0" y="0" viewBox="0 0 512 512" style="enable-background:new 0 0 512 512" xml:space="preserve" class=""><g><path d="M486.27,410.28a135,135,0,0,0-73.66-209.52C388.3,111.68,306.68,46,210,46,94.21,46,0,140.21,0,256A209.9,209.9,0,0,0,43.85,384.43L2.77,442.32A15,15,0,0,0,15,466H210a208.84,208.84,0,0,0,93.3-21.9A133.76,133.76,0,0,0,375,466l.85,0H497a15,15,0,0,0,12.19-23.74ZM44,436l30.89-43.54A15,15,0,0,0,74,374,179.92,179.92,0,0,1,30,256c0-99.25,80.75-180,180-180s180,80.75,180,180S309.25,436,210,436Zm411.25-17.45L467.8,436H376a104.45,104.45,0,0,1-43.19-9.73,210,210,0,0,0,86.15-191.55A105,105,0,0,1,456.18,400,15,15,0,0,0,455.29,418.55Z" fill="#000000" data-original="#000000" class=""></path><path d="M120,211H220a15,15,0,0,0,0-30H120a15,15,0,0,0,0,30Z" fill="#000000" data-original="#000000" class=""></path><path d="M300,241H120a15,15,0,0,0,0,30H300a15,15,0,0,0,0-30Z" fill="#000000" data-original="#000000" class=""></path><path d="M300,301H120a15,15,0,0,0,0,30H300a15,15,0,0,0,0-30Z" fill="#000000" data-original="#000000" class=""></path></g></svg>