<svg xmlns="http://www.w3.org/2000/svg" version="1.1" xmlns:xlink="http://www.w3.org/1999/xlink" xmlns:svgjs="http://svgjs.com/svgjs" width="512" height="512" x="0" y="0" viewBox="0 0 72 72" style="enable-background:new 0 0 512 512" xml:space="preserve" class=""><g><g><path d="m36.29 23.52c0-.41-.34-.75-.75-.75h-2.14c-.41 0-.75.34-.75.75s.34.75.75.75h2.14c.42 0 .75-.33.75-.75z" fill="#000000" data-original="#000000" class=""></path><path d="m67.38 23.52c0-.01 0-.02 0-.02v-8.59c0-3.68-2.99-6.67-6.66-6.67h-49.43c-3.68 0-6.67 2.99-6.67 6.67v42.19c0 3.68 2.99 6.67 6.67 6.67h49.43c3.67 0 6.66-2.99 6.66-6.67v-33.55c0-.01 0-.02 0-.03zm-6.66 38.74h-49.43c-2.85 0-5.17-2.32-5.17-5.17v-36.6h16.2l2.44 3.47c.14.2.37.32.61.32h4.39c.41 0 .75-.34.75-.75s-.34-.75-.75-.75h-4l-2.44-3.47c-.14-.2-.37-.32-.61-.32h-16.59v-4.08c0-2.85 2.32-5.17 5.17-5.17h49.43c2.84 0 5.16 2.32 5.16 5.17v7.87h-26.87c-.41 0-.75.34-.75.75s.34.75.75.75h26.86v32.82c.01 2.84-2.31 5.16-5.15 5.16z" fill="#000000" data-original="#000000" class=""></path><path d="m48.41 19.05c1.6 0 2.9-1.3 2.9-2.9s-1.3-2.9-2.9-2.9-2.9 1.3-2.9 2.9 1.3 2.9 2.9 2.9zm0-4.29c.77 0 1.4.63 1.4 1.4s-.63 1.4-1.4 1.4-1.4-.63-1.4-1.4.63-1.4 1.4-1.4z" fill="#000000" data-original="#000000" class=""></path><path d="m39.57 19.05c1.6 0 2.9-1.3 2.9-2.9s-1.3-2.9-2.9-2.9-2.9 1.3-2.9 2.9 1.3 2.9 2.9 2.9zm0-4.29c.77 0 1.4.63 1.4 1.4s-.63 1.4-1.4 1.4-1.4-.63-1.4-1.4.63-1.4 1.4-1.4z" fill="#000000" data-original="#000000" class=""></path><path d="m57.24 19.05c1.6 0 2.9-1.3 2.9-2.9s-1.3-2.9-2.9-2.9-2.9 1.3-2.9 2.9 1.3 2.9 2.9 2.9zm0-4.29c.77 0 1.4.63 1.4 1.4s-.63 1.4-1.4 1.4-1.4-.63-1.4-1.4.63-1.4 1.4-1.4z" fill="#000000" data-original="#000000" class=""></path><path d="m46.38 53.78c0 .38.28.7.65.74l2.66.34c.03 0 .06.01.1.01.34 0 .64-.23.72-.56l.43-1.65c.73-.1 1.44-.3 2.13-.58l1.21 1.21c.27.27.69.29.99.06l2.12-1.64c.3-.23.38-.65.19-.97l-.86-1.47c.45-.59.82-1.23 1.1-1.91h1.71c.38 0 .7-.28.74-.65l.34-2.66c.05-.37-.19-.73-.55-.82l-1.65-.43c-.1-.73-.3-1.44-.58-2.13l1.21-1.21c.27-.27.29-.69.06-.99l-1.64-2.12c-.23-.3-.65-.38-.97-.19l-1.48.86c-.59-.45-1.23-.82-1.91-1.1v-1.71c0-.38-.28-.7-.65-.74l-2.66-.34c-.37-.05-.73.19-.82.55l-.43 1.65c-.73.1-1.44.3-2.13.58l-1.21-1.21c-.27-.27-.69-.29-.99-.06l-2.12 1.64c-.3.23-.38.65-.19.97l.86 1.47c-.45.59-.82 1.23-1.1 1.91h-1.71c-.38 0-.7.28-.74.65l-.34 2.66c-.05.37.19.73.55.82l1.65.43c.1.73.3 1.44.58 2.13l-1.21 1.21c-.27.27-.29.69-.06.99l1.64 2.12c.23.3.65.38.97.19l1.48-.86c.59.45 1.23.82 1.91 1.1zm-2.22-4.36-1.35.79-.83-1.08 1.11-1.11c.23-.23.28-.57.14-.86-.41-.83-.65-1.71-.71-2.61-.02-.32-.25-.59-.56-.67l-1.51-.4.17-1.35h1.56c.32 0 .6-.2.71-.51.3-.86.75-1.65 1.35-2.35.21-.24.24-.59.08-.87l-.79-1.35 1.08-.83 1.11 1.11c.23.23.57.28.86.14.83-.4 1.71-.65 2.61-.71.32-.02.59-.25.67-.56l.4-1.51 1.35.17v1.56c0 .32.2.6.51.71.86.29 1.65.75 2.35 1.35.24.21.59.24.87.08l1.35-.79.83 1.08-1.11 1.11c-.23.23-.28.57-.14.86.41.83.65 1.71.71 2.61.02.32.25.59.56.67l1.51.4-.17 1.35h-1.56c-.32 0-.6.2-.71.51-.29.86-.75 1.65-1.35 2.35-.21.24-.24.59-.08.87l.79 1.35-1.08.83-1.11-1.11c-.23-.23-.57-.29-.86-.14-.83.4-1.71.65-2.61.71-.32.02-.59.25-.67.56l-.4 1.51-1.35-.17v-1.56c0-.32-.2-.6-.51-.71-.86-.29-1.65-.75-2.35-1.35-.25-.21-.59-.24-.87-.08z" fill="#000000" data-original="#000000" class=""></path><path d="m13.74 37.12v-3.85c0-.41-.34-.75-.75-.75s-.75.34-.75.75v3.85c-1.32.34-2.31 1.53-2.31 2.95s.98 2.62 2.31 2.95v12.49c0 .41.34.75.75.75s.75-.34.75-.75v-12.48c1.33-.34 2.31-1.53 2.31-2.96s-.99-2.61-2.31-2.95zm-.75 4.52c-.01 0-.01 0-.02 0-.86-.01-1.55-.7-1.55-1.56s.7-1.56 1.56-1.56 1.56.7 1.56 1.56c.01.85-.69 1.55-1.55 1.56z" fill="#000000" data-original="#000000" class=""></path><path d="m21.42 46.25v-12.98c0-.41-.34-.75-.75-.75s-.75.34-.75.75v12.98c-1.33.34-2.31 1.53-2.31 2.96s.99 2.62 2.31 2.96v3.36c0 .41.34.75.75.75s.75-.34.75-.75v-3.36c1.32-.34 2.31-1.53 2.31-2.95s-.98-2.63-2.31-2.97zm-.74 4.52c-.01 0-.02 0-.02 0-.86 0-1.55-.7-1.55-1.56s.7-1.56 1.56-1.56 1.56.7 1.56 1.56c0 .85-.69 1.55-1.55 1.56z" fill="#000000" data-original="#000000" class=""></path><path d="m29.11 38.65v-5.38c0-.41-.34-.75-.75-.75s-.75.34-.75.75v5.38c-1.33.34-2.31 1.53-2.31 2.96s.99 2.62 2.31 2.96v10.96c0 .41.34.75.75.75s.75-.34.75-.75v-10.97c1.32-.34 2.31-1.53 2.31-2.95s-.99-2.62-2.31-2.96zm-.75 4.51c-.01 0-.01 0 0 0-.87 0-1.57-.7-1.57-1.56s.7-1.56 1.56-1.56 1.56.7 1.56 1.56-.69 1.56-1.55 1.56z" fill="#000000" data-original="#000000" class=""></path><path d="m49.75 49.06c1.1 0 2.16-.35 3.05-1.03 1.08-.82 1.78-2.01 1.96-3.35s-.16-2.67-.98-3.75-2.01-1.78-3.35-1.96-2.67.16-3.75.98-1.78 2.01-1.96 3.35.16 2.67.98 3.75 2.01 1.78 3.35 1.96c.23.04.47.05.7.05zm-2.85-2.91c-.58-.76-.82-1.7-.69-2.64s.62-1.78 1.38-2.36c.63-.47 1.37-.72 2.15-.72.16 0 .33.01.5.03.94.13 1.78.62 2.36 1.38s.82 1.7.69 2.64-.62 1.78-1.38 2.36-1.69.82-2.64.69c-.96-.13-1.8-.62-2.37-1.38z" fill="#000000" data-original="#000000" class=""></path><path d="m64.13 47c-.39-.1-.81.13-.92.54-.13.52-.3 1.03-.5 1.53-.15.39.04.82.43.97.09.04.18.05.27.05.3 0 .58-.18.7-.48.21-.55.4-1.12.55-1.69.11-.41-.13-.82-.53-.92z" fill="#000000" data-original="#000000" class=""></path><path d="m62.72 50.9c-.36-.21-.82-.1-1.03.26-3.16 5.28-9.53 7.87-15.48 6.3-.39-.1-.81.13-.92.54-.11.4.13.81.54.92 1.29.34 2.59.5 3.88.5 5.33 0 10.45-2.78 13.27-7.48.21-.36.09-.82-.26-1.04z" fill="#000000" data-original="#000000" class=""></path><path d="m36.47 37.67c-.38-.16-.82.02-.98.41-.27.65-.5 1.32-.67 2-.1.4.13.81.54.92.06.02.13.02.19.02.33 0 .64-.22.72-.56.16-.61.36-1.22.61-1.81.16-.38-.03-.82-.41-.98z" fill="#000000" data-original="#000000" class=""></path><path d="m53.28 30.52c.4.1.81-.13.92-.54.11-.4-.13-.81-.54-.92-6.45-1.68-13.23.94-16.86 6.53-.23.35-.13.81.22 1.04.13.08.27.12.41.12.25 0 .49-.12.63-.34 3.27-5.05 9.39-7.42 15.22-5.89z" fill="#000000" data-original="#000000" class=""></path></g></g></svg>