<svg xmlns="http://www.w3.org/2000/svg" version="1.1" xmlns:xlink="http://www.w3.org/1999/xlink" xmlns:svgjs="http://svgjs.com/svgjs" width="512" height="512" x="0" y="0" viewBox="0 0 60 60" style="enable-background:new 0 0 512 512" xml:space="preserve" class=""><g><path d="M53 31.912a137.155 137.155 0 0 0-2.019-22.983A6.018 6.018 0 0 0 48.846 5.4a3 3 0 0 0-1.487-1.818l-1.773-.921a2.991 2.991 0 0 0-2.306-.2c-.076.025-.145.064-.218.094C40.608 1.337 36.447 0 30 0S19.392 1.337 16.938 2.555c-.073-.03-.142-.069-.218-.094a2.988 2.988 0 0 0-2.3.2l-1.78.919a2.987 2.987 0 0 0-1.486 1.82 6.02 6.02 0 0 0-2.136 3.533A137.5 137.5 0 0 0 7 32a4.977 4.977 0 0 0 2 3.974v3.966a4.606 4.606 0 0 0-1.778 4.386l.837 5.435A4.961 4.961 0 0 0 12 53.894V57a3 3 0 0 0 3 3h30a3 3 0 0 0 3-3v-3.106a4.961 4.961 0 0 0 3.941-4.133l.837-5.435A4.6 4.6 0 0 0 51 39.941v-3.973a5.073 5.073 0 0 0 2-4.056ZM48.479 7.94a4.128 4.128 0 0 1 .539 1.368A135.639 135.639 0 0 1 51 32a3 3 0 0 1-3 3 2.991 2.991 0 0 1-2.99-2.995c.033-6.908.152-12.885.351-17.779a421.73 421.73 0 0 1 3.118-6.286ZM43.9 4.376a1 1 0 0 1 .768.057l1.774.921a.988.988 0 0 1 .434 1.334 401.592 401.592 0 0 0-6.878 14.227l-3.644-1.653c2.742-6 5.54-11.6 6.964-14.4a.987.987 0 0 1 .582-.486Zm-5.64 17.952a110.489 110.489 0 0 0-5.137 13.552 5.97 5.97 0 0 0-1.811-.732A117.7 117.7 0 0 1 36.43 21.5l.807.366ZM30 44c-1.486 0-2.8-.062-4-.161V41a4 4 0 1 1 8 0v2.839c-1.2.099-2.514.161-4 .161Zm-7.021-22.235.591-.268a117.643 117.643 0 0 1 5.118 13.652 5.967 5.967 0 0 0-1.81.737 110.292 110.292 0 0 0-5.138-13.558Zm11.5-1.8a1.962 1.962 0 0 0 .253.458A123.119 123.119 0 0 0 30 32.647a123.119 123.119 0 0 0-4.729-12.222 1.962 1.962 0 0 0 .253-.458 1.982 1.982 0 0 0-.053-1.534l-.276-.6c1.627.1 3.241.167 4.805.167s3.178-.067 4.805-.167l-.276.6a1.982 1.982 0 0 0-.053 1.534ZM41.491 4.03a424.663 424.663 0 0 0-5.729 11.739 75.652 75.652 0 0 1-11.524 0 407.361 407.361 0 0 0-5.73-11.739A28.356 28.356 0 0 1 30 2a28.35 28.35 0 0 1 11.491 2.03ZM13.562 5.354l1.776-.922a1.016 1.016 0 0 1 1.349.427c1.424 2.8 4.222 8.4 6.964 14.4l-3.644 1.65C17.3 14.985 14.535 9.456 13.129 6.688a.988.988 0 0 1 .433-1.334Zm-2.581 3.958a4.143 4.143 0 0 1 .54-1.372 421.73 421.73 0 0 1 3.118 6.286c.2 4.894.318 10.871.351 17.779A2.991 2.991 0 0 1 12 35a3.015 3.015 0 0 1-3-3.053 135.484 135.484 0 0 1 1.981-22.635ZM11 36.9a4.99 4.99 0 0 0 5.99-4.9c-.024-4.91-.092-9.343-.2-13.266.462.985.931 1.994 1.4 3.015a1.988 1.988 0 0 0 1.608 1.14 101.448 101.448 0 0 1 5.428 14.5A5.956 5.956 0 0 0 24 41v2.626c-5.106-.7-7.1-2.209-7.684-2.765A6.459 6.459 0 0 0 11.791 39a4.527 4.527 0 0 0-.791.086ZM46 57a1 1 0 0 1-1 1H15a1 1 0 0 1-1-1v-3h32Zm-20-5c0-.944 1.711-2 4-2s4 1.056 4 2Zm24.8-7.978-.837 5.434A2.983 2.983 0 0 1 47 52H36c0-2.243-2.636-4-6-4s-6 1.757-6 4H13a2.983 2.983 0 0 1-2.965-2.544L9.2 44.022a2.623 2.623 0 0 1 .6-2.107A2.673 2.673 0 0 1 11.887 41a4.42 4.42 0 0 1 3.043 1.3C16.086 43.414 19.869 46 30 46s13.914-2.586 15.07-3.7a4.469 4.469 0 0 1 3.139-1.3 2.625 2.625 0 0 1 2.591 3.022ZM49 39.091a5.05 5.05 0 0 0-.887-.091 6.407 6.407 0 0 0-4.429 1.861c-.579.556-2.578 2.061-7.684 2.765V41a5.974 5.974 0 0 0-1.222-3.623A101.443 101.443 0 0 1 40.2 22.884a1.988 1.988 0 0 0 1.608-1.14c.466-1.021.935-2.03 1.4-3.015a603.858 603.858 0 0 0-.2 13.266A4.991 4.991 0 0 0 49 36.9Z" fill="#000000" data-original="#000000"></path></g></svg>