<svg width="24" height="24" viewBox="0 0 24 24" fill="none" xmlns="http://www.w3.org/2000/svg">
<path d="M21.675 14.6649L20.1398 13.3524C20.2125 12.907 20.25 12.4523 20.25 11.9977C20.25 11.543 20.2125 11.0883 20.1398 10.643L21.675 9.33047C21.7908 9.23135 21.8737 9.09932 21.9126 8.95196C21.9515 8.80459 21.9447 8.64886 21.893 8.50547L21.8719 8.44454C21.4492 7.26335 20.8164 6.16837 20.0039 5.21251L19.9617 5.16329C19.8632 5.04739 19.7318 4.96408 19.5849 4.92434C19.4381 4.88459 19.2826 4.89027 19.1391 4.94063L17.2336 5.61797C16.5305 5.04141 15.7453 4.58672 14.8969 4.26798L14.5289 2.27579C14.5011 2.12589 14.4284 1.98798 14.3204 1.88039C14.2124 1.7728 14.0742 1.70062 13.9242 1.67344L13.8609 1.66172C12.6398 1.44141 11.3555 1.44141 10.1344 1.66172L10.0711 1.67344C9.92109 1.70062 9.7829 1.7728 9.67489 1.88039C9.56688 1.98798 9.49417 2.12589 9.46641 2.27579L9.09609 4.27735C8.25443 4.59617 7.47063 5.05061 6.77578 5.62266L4.85625 4.94063C4.71273 4.88987 4.55717 4.88398 4.41022 4.92376C4.26328 4.96353 4.13192 5.04707 4.03359 5.16329L3.99141 5.21251C3.17987 6.16905 2.54713 7.26384 2.12344 8.44454L2.10234 8.50547C1.99688 8.79844 2.08359 9.12657 2.32031 9.33047L3.87422 10.657C3.80156 11.0977 3.76641 11.5477 3.76641 11.9953C3.76641 12.4453 3.80156 12.8953 3.87422 13.3336L2.32031 14.6602C2.20452 14.7593 2.12165 14.8913 2.08271 15.0387C2.04378 15.1861 2.05062 15.3418 2.10234 15.4852L2.12344 15.5461C2.54766 16.7274 3.17578 17.8172 3.99141 18.7781L4.03359 18.8274C4.13216 18.9432 4.26353 19.0266 4.41038 19.0663C4.55724 19.106 4.71269 19.1004 4.85625 19.05L6.77578 18.368C7.47422 18.9422 8.25469 19.3969 9.09609 19.7133L9.46641 21.7149C9.49417 21.8648 9.56688 22.0027 9.67489 22.1102C9.7829 22.2178 9.92109 22.29 10.0711 22.3172L10.1344 22.3289C11.3667 22.5504 12.6286 22.5504 13.8609 22.3289L13.9242 22.3172C14.0742 22.29 14.2124 22.2178 14.3204 22.1102C14.4284 22.0027 14.5011 21.8648 14.5289 21.7149L14.8969 19.7227C15.745 19.4047 16.5346 18.9486 17.2336 18.3727L19.1391 19.05C19.2826 19.1008 19.4381 19.1067 19.5851 19.0669C19.732 19.0271 19.8634 18.9436 19.9617 18.8274L20.0039 18.7781C20.8195 17.8148 21.4477 16.7274 21.8719 15.5461L21.893 15.4852C21.9984 15.1969 21.9117 14.8688 21.675 14.6649ZM18.4758 10.9195C18.5344 11.2734 18.5648 11.6367 18.5648 12C18.5648 12.3633 18.5344 12.7266 18.4758 13.0805L18.3211 14.0203L20.0719 15.518C19.8065 16.1294 19.4714 16.7083 19.0734 17.243L16.8984 16.4719L16.1625 17.0766C15.6023 17.5359 14.9789 17.8969 14.3039 18.15L13.4109 18.4852L12.9914 20.7586C12.3295 20.8336 11.6612 20.8336 10.9992 20.7586L10.5797 18.4805L9.69375 18.1406C9.02578 17.8875 8.40469 17.5266 7.84922 17.0695L7.11328 16.4625L4.92422 17.2406C4.52578 16.7039 4.19297 16.125 3.92578 15.5156L5.69531 14.0039L5.54297 13.0664C5.48672 12.7172 5.45625 12.3563 5.45625 12C5.45625 11.6414 5.48438 11.2828 5.54297 10.9336L5.69531 9.9961L3.92578 8.48438C4.19063 7.87266 4.52578 7.2961 4.92422 6.75938L7.11328 7.53751L7.84922 6.93048C8.40469 6.47344 9.02578 6.11251 9.69375 5.85938L10.582 5.52422L11.0016 3.2461C11.6602 3.1711 12.3328 3.1711 12.9938 3.2461L13.4133 5.51954L14.3063 5.85469C14.9789 6.10782 15.6047 6.46876 16.1648 6.92813L16.9008 7.53282L19.0758 6.76172C19.4742 7.29844 19.807 7.87735 20.0742 8.48672L18.3234 9.98438L18.4758 10.9195ZM12 7.64063C9.72188 7.64063 7.875 9.48751 7.875 11.7656C7.875 14.0438 9.72188 15.8906 12 15.8906C14.2781 15.8906 16.125 14.0438 16.125 11.7656C16.125 9.48751 14.2781 7.64063 12 7.64063ZM13.8563 13.6219C13.6128 13.866 13.3234 14.0597 13.0049 14.1916C12.6863 14.3235 12.3448 14.3912 12 14.3906C11.2992 14.3906 10.6406 14.1164 10.1437 13.6219C9.89959 13.3784 9.70597 13.0891 9.57404 12.7705C9.44211 12.4519 9.37446 12.1104 9.375 11.7656C9.375 11.0648 9.64922 10.4063 10.1437 9.90938C10.6406 9.41251 11.2992 9.14063 12 9.14063C12.7008 9.14063 13.3594 9.41251 13.8563 9.90938C14.1004 10.1528 14.294 10.4422 14.426 10.7607C14.5579 11.0793 14.6255 11.4208 14.625 11.7656C14.625 12.4664 14.3508 13.125 13.8563 13.6219Z" fill="#434343"/>
</svg>
