<svg xmlns="http://www.w3.org/2000/svg" version="1.1" xmlns:xlink="http://www.w3.org/1999/xlink" xmlns:svgjs="http://svgjs.com/svgjs" width="512" height="512" x="0" y="0" viewBox="0 0 1000 1000" style="enable-background:new 0 0 512 512" xml:space="preserve"><g><g id="Grid" display="none"><g display="inline" fill="none" stroke="#434343" stroke-miterlimit="10" stroke-width="0.1px"><path d="m-.5 0h998.23v998.23h-998.23z" fill="none" stroke="#000000" stroke-width="0.1px"></path><circle cx="498.62" cy="499.12" r="499.12" fill="none" stroke="#000000" stroke-width="2px"></circle><path d="m249.06 0h499.12v998.23h-499.12z" fill="none" stroke="#000000" stroke-width="0.1px"></path><path d="m498.62 998.23v-998.23" fill="none" stroke="#000000" stroke-width="1px"></path><path d="m-.5 0 1000.73 1000.73" fill="none" stroke="#000000" stroke-width="1px"></path><path d="m997.73 0-998.23 998.23" fill="none" stroke="#000000" stroke-width="1px"></path><path d="m-.5 249.56h998.23v499.12h-998.23z" fill="none" stroke="#000000" stroke-width="1px"></path><path d="m997.73 499.12h-998.23" fill="none" stroke="#000000" stroke-width="1px"></path><path d="m144.24 144.74h708.75v708.75h-708.75z" fill="none" stroke="#000000" stroke-width="1px"></path><circle cx="498.62" cy="499.12" r="354.37" fill="none" stroke="#000000" stroke-width="1px"></circle><circle cx="498.62" cy="499.12" r="249.56" fill="none" stroke="#000000" stroke-width="1px"></circle><circle cx="498.62" cy="499.12" r="124.78" fill="none" stroke="#000000" stroke-width="1px"></circle></g></g><g id="Icons"><g id="Switch"><g><path d="m268.5 397.5c-71.13 0-129-57.87-129-129s57.87-129 129-129 129 57.87 129 129-57.87 129-129 129zm0-248c-65.62 0-119 53.38-119 119s53.38 119 119 119 119-53.38 119-119-53.38-119-119-119z" fill="#231F20" data-original="#231f20"></path></g><g><path d="m720.18 397h-462.89c-2.76 0-5-2.24-5-5s2.24-5 5-5h462.89c34.03 0 66.01-13.01 90.06-36.64 24.03-23.59 37.26-54.96 37.26-88.32 0-62.05-51.45-112.54-114.68-112.54h-464.32c-1.02 0-2.04.01-3.06.04-1.03.03-2.06.07-3.09.12-1.01.05-2.01.12-3.01.19-.67.05-1.32.1-1.96.17l-.1.01c-.79.06-1.6.15-2.38.25-60.12 6.72-105.4 56.6-105.4 116.01v2.21c0 2.76-2.24 5-5 5s-5-2.24-5-5v-2.21c0-64.51 49.1-118.66 114.2-125.95.85-.11 1.78-.2 2.71-.28.72-.07 1.46-.14 2.19-.19 1.07-.08 2.17-.16 3.28-.21 1.09-.05 2.18-.09 3.27-.12 1.11-.03 2.23-.04 3.34-.04h464.32c68.75 0 124.68 54.97 124.68 122.54 0 36.07-14.3 69.97-40.26 95.46-25.91 25.47-60.39 39.5-97.05 39.5z" fill="#231F20" data-original="#231f20"></path></g><g><path d="m728.5 858.5c-71.13 0-129-57.87-129-129s57.87-129 129-129 129 57.87 129 129-57.87 129-129 129zm0-248c-65.62 0-119 53.38-119 119s53.38 119 119 119 119-53.38 119-119-53.38-119-119-119z" fill="#231F20" data-original="#231f20"></path></g><g><path d="m739.71 858h-462.89c-36.66 0-71.14-14.03-97.06-39.5-25.96-25.48-40.26-59.38-40.26-95.46 0-67.57 55.93-122.54 124.68-122.54h464.32c1.12 0 2.24.01 3.34.04 1.09.03 2.18.07 3.27.12 1.11.05 2.21.12 3.31.21.71.05 1.44.11 2.17.19.93.08 1.87.17 2.79.29 65.03 7.28 114.13 61.43 114.13 125.94v2.21c0 2.76-2.24 5-5 5s-5-2.24-5-5v-2.21c0-59.41-45.28-109.29-105.32-116.01-.86-.11-1.66-.19-2.46-.25l-.1-.01c-.64-.07-1.29-.12-1.94-.17-1.03-.08-2.03-.15-3.04-.19-1.03-.05-2.06-.09-3.09-.12-1.01-.03-2.04-.04-3.06-.04h-464.32c-63.23 0-114.68 50.49-114.68 112.54 0 33.37 13.23 64.73 37.26 88.32 24.05 23.63 56.03 36.64 90.06 36.64h462.89c2.76 0 5 2.24 5 5s-2.24 5-5 5z" fill="#231F20" data-original="#231f20"></path></g></g></g></g></svg>