<svg xmlns="http://www.w3.org/2000/svg" version="1.1" xmlns:xlink="http://www.w3.org/1999/xlink" xmlns:svgjs="http://svgjs.com/svgjs" width="512" height="512" x="0" y="0" viewBox="0 0 32 32" style="enable-background:new 0 0 512 512" xml:space="preserve" class=""><g><g id="verification"><g><g><g><g><g><g><g><path d="m15.5 4h-5c-.276 0-.5-.224-.5-.5s.224-.5.5-.5h5c.276 0 .5.224.5.5s-.224.5-.5.5z" fill="#000000" data-original="#000000" class=""></path></g></g></g></g><g><g><g><g><path d="m13.5 29h-1c-.276 0-.5-.224-.5-.5s.224-.5.5-.5h1c.276 0 .5.224.5.5s-.224.5-.5.5z" fill="#000000" data-original="#000000" class=""></path></g></g></g></g><g><g><path d="m18.5 31h-11c-1.379 0-2.5-1.121-2.5-2.5v-25c0-1.379 1.121-2.5 2.5-2.5h11c1.379 0 2.5 1.121 2.5 2.5v5c0 .276-.224.5-.5.5s-.5-.224-.5-.5v-5c0-.827-.673-1.5-1.5-1.5h-11c-.827 0-1.5.673-1.5 1.5v25c0 .827.673 1.5 1.5 1.5h11c.827 0 1.5-.673 1.5-1.5v-10c0-.276.224-.5.5-.5s.5.224.5.5v10c0 1.379-1.121 2.5-2.5 2.5z" fill="#000000" data-original="#000000" class=""></path></g></g></g></g></g><g><g><path d="m28.5 17h-19c-.276 0-.5-.224-.5-.5v-6c0-.276.224-.5.5-.5h19c.276 0 .5.224.5.5v6c0 .276-.224.5-.5.5zm-18.5-1h18v-5h-18z" fill="#000000" data-original="#000000" class=""></path></g><g><g><g><path d="m26.207 14.207c0 .128-.049.256-.146.354-.195.195-.512.195-.707 0l-1.414-1.414c-.195-.195-.195-.512 0-.707s.512-.195.707 0l1.414 1.414c.097.097.146.225.146.353z" fill="#000000" data-original="#000000" class=""></path></g><g><path d="m24.293 14.707c-.128 0-.256-.049-.354-.146-.195-.195-.195-.512 0-.707l1.414-1.414c.195-.195.512-.195.707 0s.195.512 0 .707l-1.414 1.414c-.097.097-.225.146-.353.146z" fill="#000000" data-original="#000000" class=""></path></g></g><g><g><path d="m22.207 14.207c0 .128-.049.256-.146.354-.195.195-.512.195-.707 0l-1.414-1.414c-.195-.195-.195-.512 0-.707s.512-.195.707 0l1.414 1.414c.097.097.146.225.146.353z" fill="#000000" data-original="#000000" class=""></path></g><g><path d="m20.293 14.707c-.128 0-.256-.049-.354-.146-.195-.195-.195-.512 0-.707l1.414-1.414c.195-.195.512-.195.707 0s.195.512 0 .707l-1.414 1.414c-.097.097-.225.146-.353.146z" fill="#000000" data-original="#000000" class=""></path></g></g><g><g><path d="m18.207 14.207c0 .128-.049.256-.146.354-.195.195-.512.195-.707 0l-1.414-1.414c-.195-.195-.195-.512 0-.707s.512-.195.707 0l1.414 1.414c.097.097.146.225.146.353z" fill="#000000" data-original="#000000" class=""></path></g><g><path d="m16.293 14.707c-.128 0-.256-.049-.354-.146-.195-.195-.195-.512 0-.707l1.414-1.414c.195-.195.512-.195.707 0s.195.512 0 .707l-1.414 1.414c-.097.097-.225.146-.353.146z" fill="#000000" data-original="#000000" class=""></path></g></g><g><g><path d="m14.207 14.207c0 .128-.049.256-.146.354-.195.195-.512.195-.707 0l-1.414-1.414c-.195-.195-.195-.512 0-.707s.512-.195.707 0l1.414 1.414c.097.097.146.225.146.353z" fill="#000000" data-original="#000000" class=""></path></g><g><path d="m12.293 14.707c-.128 0-.256-.049-.354-.146-.195-.195-.195-.512 0-.707l1.414-1.414c.195-.195.512-.195.707 0s.195.512 0 .707l-1.414 1.414c-.097.097-.225.146-.353.146z" fill="#000000" data-original="#000000" class=""></path></g></g></g></g></g></g></svg>